<?xml version="1.0" encoding="UTF-8"?>
<!-- Generated by jsxcad -->
<!DOCTYPE svg PUBLIC "-//W3C//DTD SVG 1.1 Tiny//EN" "http://www.w3.org/Graphics/SVG/1.1/DTD/svg11-tiny.dtd">
<svg viewBox="-250 -250 500 500" width="500" height="500" xmlns="http://www.w3.org/2000/svg"><path d="M-164.09492290885598,-80.04135110399775L-75.47897129805109,73.48323442936396L-74.77211801263044,63.04511357435594z" style="fill:rgb(247,158,158)"/><path d="M-165.8754895415695,-69.61287796569658L-88.27439028894793,76.60248613586803L-75.47897129805109,73.48323442936396z" style="fill:rgb(127,37,217)"/><path d="M-75.47897129805109,73.48323442936396L-164.09492290885598,-80.04135110399775L-165.8754895415695,-69.61287796569658z" style="fill:rgb(247,158,158)"/><path d="M-88.27439028894793,76.60248613586803L-165.8754895415695,-69.61287796569658L-180.22115683209822,-65.50525606695875z" style="fill:rgb(127,37,217)"/><path d="M-175.3911923186783,-13.881065946736108L-80.01762007733701,140.50557902868073L-79.22365005801073,128.78100309769533zM110.56782917503338,-159.3878599353291L169.85850827879204,13.675105789697875L168.17049912663649,3.192859822274852z" style="fill:rgb(247,158,158)"/><path d="M-177.4268662675114,-1.958483786316233L-93.56431628964305,143.58286126141434L-80.01762007733701,140.50557902868073zM111.85344612806524,-149.13564144545097L155.43605819829773,17.190993765008617L169.85850827879204,13.675105789697875z" style="fill:rgb(127,37,217)"/><path d="M-178.29367379462363,-75.93951403123613L-165.8754895415695,-69.61287796569658L-164.09492290885598,-80.04135110399775zM-165.8754895415695,-69.61287796569658L-178.29367379462363,-75.93951403123613L-180.22115683209822,-65.50525606695875z" style="fill:rgb(83,212,212)"/><path d="M-80.01762007733701,140.50557902868073L-175.3911923186783,-13.881065946736108L-177.4268662675114,-1.958483786316233z" style="fill:rgb(247,158,158)"/><path d="M-93.56431628964305,143.58286126141434L-177.4268662675114,-1.958483786316233L-192.72193430142798,2.166610287785645z" style="fill:rgb(127,37,217)"/><path d="M169.85850827879204,13.675105789697875L110.56782917503338,-159.3878599353291L111.85344612806524,-149.13564144545097z" style="fill:rgb(247,158,158)"/><path d="M155.43605819829773,17.190993765008617L111.85344612806524,-149.13564144545097L95.38528668774084,-144.42026936230042z" style="fill:rgb(127,37,217)"/><path d="M118.75766647096687,-94.07758135161147L180.74379163681223,81.27082007315053L178.83371594657794,69.40958494201925z" style="fill:rgb(247,158,158)"/><path d="M120.2420684775113,-82.24014123228419L165.36083874002708,84.76522613764764L180.74379163681223,81.27082007315053z" style="fill:rgb(127,37,217)"/><path d="M-190.51941791041745,-9.756522009756381L-177.4268662675114,-1.958483786316233L-175.3911923186783,-13.881065946736108zM94.29324292151851,-154.68633637832576L111.85344612806524,-149.13564144545097L110.56782917503338,-159.3878599353291zM-177.4268662675114,-1.958483786316233L-190.51941791041745,-9.756522009756381L-192.72193430142798,2.166610287785645zM111.85344612806524,-149.13564144545097L94.29324292151851,-154.68633637832576L95.38528668774084,-144.42026936230042zM-199.8861335658748,-90.66447898806602L147.6187360088908,-77.93156230613455L130.75207171379512,-187.98344855750506zM147.6187360088908,-77.93156230613455L-199.8861335658748,-90.66447898806602L-223.38999701304434,21.095645531928167z" style="fill:rgb(83,212,212)"/><path d="M180.74379163681223,81.27082007315053L118.75766647096687,-94.07758135161147L120.2420684775113,-82.24014123228419z" style="fill:rgb(247,158,158)"/><path d="M165.36083874002708,84.76522613764764L120.2420684775113,-82.24014123228419L102.50840743438881,-77.45735339667722z" style="fill:rgb(127,37,217)"/><path d="M147.6187360088908,-77.93156230613455L132.91585150348217,-181.41948248286852L130.75207171379512,-187.98344855750506z" style="fill:rgb(247,158,158)"/><path d="M-219.21813088921266,26.70121486193459L147.6187360088908,-77.93156230613455L-223.38999701304434,21.095645531928167z" style="fill:rgb(127,37,217)"/><path d="M132.91585150348217,-181.41948248286852L147.6187360088908,-77.93156230613455L149.95836539918545,-71.18882464989906z" style="fill:rgb(247,158,158)"/><path d="M101.24824917313018,-89.3038283833264L120.2420684775113,-82.24014123228419L118.75766647096687,-94.07758135161147zM120.2420684775113,-82.24014123228419L101.24824917313018,-89.3038283833264L102.50840743438881,-77.45735339667722z" style="fill:rgb(83,212,212)"/><path d="M147.6187360088908,-77.93156230613455L-219.21813088921266,26.70121486193459L149.95836539918545,-71.18882464989906z" style="fill:rgb(127,37,217)"/></svg>
