solid JSxCAD
facet normal -1 0 0
outer loop
vertex 3 5 0
vertex 3 3 29
vertex 3 5 29
endloop
endfacet
facet normal -1 0 0
outer loop
vertex 3 3 29
vertex 3 5 0
vertex 3 3 0
endloop
endfacet
facet normal 0 1 0
outer loop
vertex 3 5 0
vertex 5 5 29
vertex 5 5 0
endloop
endfacet
facet normal 0 1 0
outer loop
vertex 5 5 29
vertex 3 5 0
vertex 3 5 29
endloop
endfacet
facet normal 1 0 0
outer loop
vertex 5 3 29
vertex 5 5 0
vertex 5 5 29
endloop
endfacet
facet normal 1 0 0
outer loop
vertex 5 5 0
vertex 5 3 29
vertex 5 3 0
endloop
endfacet
facet normal 0 -1 0
outer loop
vertex 3 3 29
vertex 5 3 0
vertex 5 3 29
endloop
endfacet
facet normal 0 -1 0
outer loop
vertex 5 3 0
vertex 3 3 29
vertex 3 3 0
endloop
endfacet
facet normal 0 0 1
outer loop
vertex 3 5 29
vertex 5 3 29
vertex 5 5 29
endloop
endfacet
facet normal 0 0 1
outer loop
vertex 5 3 29
vertex 3 5 29
vertex 3 3 29
endloop
endfacet
facet normal 0 0 -1
outer loop
vertex 5 3 0
vertex 3 5 0
vertex 5 5 0
endloop
endfacet
facet normal 0 0 -1
outer loop
vertex 3 5 0
vertex 5 3 0
vertex 3 3 0
endloop
endfacet
facet normal -1 0 0
outer loop
vertex 15 3 0
vertex 15 5 29
vertex 15 5 0
endloop
endfacet
facet normal -1 0 0
outer loop
vertex 15 5 29
vertex 15 3 0
vertex 15 3 29
endloop
endfacet
facet normal 0 1 0
outer loop
vertex 15 5 0
vertex 17 5 29
vertex 17 5 0
endloop
endfacet
facet normal 0 1 0
outer loop
vertex 17 5 29
vertex 15 5 0
vertex 15 5 29
endloop
endfacet
facet normal 1 0 0
outer loop
vertex 17 3 29
vertex 17 5 0
vertex 17 5 29
endloop
endfacet
facet normal 1 0 0
outer loop
vertex 17 5 0
vertex 17 3 29
vertex 17 3 0
endloop
endfacet
facet normal 0 -1 0
outer loop
vertex 15 3 29
vertex 17 3 0
vertex 17 3 29
endloop
endfacet
facet normal 0 -1 0
outer loop
vertex 17 3 0
vertex 15 3 29
vertex 15 3 0
endloop
endfacet
facet normal 0 0 1
outer loop
vertex 15 5 29
vertex 17 3 29
vertex 17 5 29
endloop
endfacet
facet normal 0 0 1
outer loop
vertex 17 3 29
vertex 15 5 29
vertex 15 3 29
endloop
endfacet
facet normal 0 0 -1
outer loop
vertex 15 3 0
vertex 17 5 0
vertex 17 3 0
endloop
endfacet
facet normal 0 0 -1
outer loop
vertex 17 5 0
vertex 15 3 0
vertex 15 5 0
endloop
endfacet
facet normal -1 0 0
outer loop
vertex 3 41 0
vertex 3 39 29
vertex 3 41 29
endloop
endfacet
facet normal -1 0 0
outer loop
vertex 3 39 29
vertex 3 41 0
vertex 3 39 0
endloop
endfacet
facet normal 0 1 0
outer loop
vertex 3 41 0
vertex 5 41 29
vertex 5 41 0
endloop
endfacet
facet normal 0 1 0
outer loop
vertex 5 41 29
vertex 3 41 0
vertex 3 41 29
endloop
endfacet
facet normal 1 0 0
outer loop
vertex 5 39 29
vertex 5 41 0
vertex 5 41 29
endloop
endfacet
facet normal 1 0 0
outer loop
vertex 5 41 0
vertex 5 39 29
vertex 5 39 0
endloop
endfacet
facet normal 0 -1 0
outer loop
vertex 3 39 29
vertex 5 39 0
vertex 5 39 29
endloop
endfacet
facet normal 0 -1 0
outer loop
vertex 5 39 0
vertex 3 39 29
vertex 3 39 0
endloop
endfacet
facet normal 0 0 1
outer loop
vertex 3 41 29
vertex 5 39 29
vertex 5 41 29
endloop
endfacet
facet normal 0 0 1
outer loop
vertex 5 39 29
vertex 3 41 29
vertex 3 39 29
endloop
endfacet
facet normal 0 0 -1
outer loop
vertex 5 39 0
vertex 3 41 0
vertex 5 41 0
endloop
endfacet
facet normal 0 0 -1
outer loop
vertex 3 41 0
vertex 5 39 0
vertex 3 39 0
endloop
endfacet
facet normal -1 0 0
outer loop
vertex 15 39 0
vertex 15 41 29
vertex 15 41 0
endloop
endfacet
facet normal -1 0 0
outer loop
vertex 15 41 29
vertex 15 39 0
vertex 15 39 29
endloop
endfacet
facet normal 0 1 0
outer loop
vertex 15 41 0
vertex 17 41 29
vertex 17 41 0
endloop
endfacet
facet normal 0 1 0
outer loop
vertex 17 41 29
vertex 15 41 0
vertex 15 41 29
endloop
endfacet
facet normal 1 0 0
outer loop
vertex 17 39 29
vertex 17 41 0
vertex 17 41 29
endloop
endfacet
facet normal 1 0 0
outer loop
vertex 17 41 0
vertex 17 39 29
vertex 17 39 0
endloop
endfacet
facet normal 0 -1 0
outer loop
vertex 15 39 29
vertex 17 39 0
vertex 17 39 29
endloop
endfacet
facet normal 0 -1 0
outer loop
vertex 17 39 0
vertex 15 39 29
vertex 15 39 0
endloop
endfacet
facet normal 0 0 1
outer loop
vertex 15 41 29
vertex 17 39 29
vertex 17 41 29
endloop
endfacet
facet normal 0 0 1
outer loop
vertex 17 39 29
vertex 15 41 29
vertex 15 39 29
endloop
endfacet
facet normal 0 0 -1
outer loop
vertex 15 39 0
vertex 17 41 0
vertex 17 39 0
endloop
endfacet
facet normal 0 0 -1
outer loop
vertex 17 41 0
vertex 15 39 0
vertex 15 41 0
endloop
endfacet
facet normal -1 0 0
outer loop
vertex 0 44 29
vertex 0 0 30
vertex 0 44 30
endloop
endfacet
facet normal -1 0 0
outer loop
vertex 0 0 30
vertex 0 44 29
vertex 0 0 29
endloop
endfacet
facet normal 0 1 0
outer loop
vertex 0 44 29
vertex 20 44 30
vertex 20 44 29
endloop
endfacet
facet normal 0 1 0
outer loop
vertex 20 44 30
vertex 0 44 29
vertex 0 44 30
endloop
endfacet
facet normal 1 0 0
outer loop
vertex 20 0 30
vertex 20 44 29
vertex 20 44 30
endloop
endfacet
facet normal 1 0 0
outer loop
vertex 20 44 29
vertex 20 0 30
vertex 20 0 29
endloop
endfacet
facet normal 0 -1 0
outer loop
vertex 0 0 30
vertex 20 0 29
vertex 20 0 30
endloop
endfacet
facet normal 0 -1 0
outer loop
vertex 20 0 29
vertex 0 0 30
vertex 0 0 29
endloop
endfacet
facet normal 0 0 1
outer loop
vertex 0 44 30
vertex 20 0 30
vertex 20 44 30
endloop
endfacet
facet normal 0 0 1
outer loop
vertex 20 0 30
vertex 0 44 30
vertex 0 0 30
endloop
endfacet
facet normal 0 0 -1
outer loop
vertex 20 0 29
vertex 0 44 29
vertex 20 44 29
endloop
endfacet
facet normal 0 0 -1
outer loop
vertex 0 44 29
vertex 20 0 29
vertex 0 0 29
endloop
endfacet
endsolid JSxCAD
